<svg xmlns="http://www.w3.org/2000/svg" width="1080" height="1350" viewBox="0 0 1080 1350">
<rect width="1080" height="1350" fill="#071d3d"/>
<rect x="0" y="0" width="1080" height="18" fill="#ff6b00"/>
<g font-family="Arial,DejaVu Sans,sans-serif">
<text x="540" y="110" text-anchor="middle" fill="#ffffff" font-size="72" font-weight="800">ЗВІДО</text>
<rect x="455" y="134" width="170" height="8" rx="4" fill="#ff6b00"/>
<text x="540" y="250" text-anchor="middle" fill="#ffffff" font-size="66" font-weight="800">АРМАТУРА СТІНИ</text>
<text x="540" y="320" text-anchor="middle" fill="#ff6b00" font-size="48" font-weight="800">ЩО ВРАХУВАТИ?</text>

<rect x="150" y="390" width="780" height="505" rx="34" fill="#0d2e59" stroke="#ffffff" stroke-width="4"/>
<rect x="435" y="440" width="210" height="405" rx="14" fill="#173b65" stroke="#6f87a7" stroke-width="3"/>
<g stroke="#ffffff" stroke-width="12" stroke-linecap="round">
<line x1="245" y1="445" x2="245" y2="840"/><line x1="335" y1="445" x2="335" y2="840"/>
<line x1="425" y1="445" x2="425" y2="840"/><line x1="515" y1="445" x2="515" y2="840"/>
<line x1="205" y1="510" x2="555" y2="510"/><line x1="205" y1="610" x2="555" y2="610"/>
<line x1="205" y1="710" x2="555" y2="710"/><line x1="205" y1="810" x2="555" y2="810"/>
</g>
<g stroke="#ff6b00" stroke-width="12" stroke-linecap="round">
<line x1="565" y1="445" x2="565" y2="840"/><line x1="655" y1="445" x2="655" y2="840"/>
<line x1="745" y1="445" x2="745" y2="840"/><line x1="835" y1="445" x2="835" y2="840"/>
<line x1="525" y1="510" x2="875" y2="510"/><line x1="525" y1="610" x2="875" y2="610"/>
<line x1="525" y1="710" x2="875" y2="710"/><line x1="525" y1="810" x2="875" y2="810"/>
</g>
<g stroke="#ff6b00" stroke-width="5" fill="none">
<line x1="245" y1="420" x2="335" y2="420"/><path d="M260 408 L245 420 L260 432 M320 408 L335 420 L320 432"/>
<rect x="630" y="760" width="170" height="92" rx="12" stroke-dasharray="12 9"/>
</g>
<text x="290" y="405" text-anchor="middle" fill="#ffffff" font-size="24" font-weight="700">КРОК</text>
<text x="715" y="750" text-anchor="middle" fill="#ffffff" font-size="24" font-weight="700">НАПУСК</text>

<g font-size="25" font-weight="800" text-anchor="middle">
<rect x="55" y="960" width="180" height="78" rx="18" fill="#ff6b00"/><text x="145" y="1010" fill="#071d3d">ШАРИ</text>
<rect x="250" y="960" width="180" height="78" rx="18" fill="#ffffff"/><text x="340" y="1010" fill="#071d3d">КРОК</text>
<rect x="445" y="960" width="190" height="78" rx="18" fill="#ff6b00"/><text x="540" y="1010" fill="#071d3d">НАПУСКИ</text>
<rect x="650" y="960" width="180" height="78" rx="18" fill="#ffffff"/><text x="740" y="1010" fill="#071d3d">ДЕТАЛІ</text>
<rect x="845" y="960" width="180" height="78" rx="18" fill="#ff6b00"/><text x="935" y="1010" fill="#071d3d">ЗАПАС</text>
</g>
<text x="540" y="1150" text-anchor="middle" fill="#ffffff" font-size="34" font-weight="700">ВЕРТИКАЛЬНІ + ГОРИЗОНТАЛЬНІ СТРИЖНІ</text>
<text x="540" y="1285" text-anchor="middle" fill="#ffffff" font-size="48" font-weight="800">buildos.top</text>
<rect x="390" y="1310" width="300" height="8" rx="4" fill="#ff6b00"/>
</g></svg>